<svg width="96" height="96" viewBox="0 0 96 96" fill="none" xmlns="http://www.w3.org/2000/svg">
  <defs>
    <linearGradient id="faviconGradient" x1="12" y1="8" x2="84" y2="88" gradientUnits="userSpaceOnUse">
      <stop stop-color="#0F8F7E" />
      <stop offset="1" stop-color="#0C6F62" />
    </linearGradient>
  </defs>
  <rect width="96" height="96" rx="28" fill="url(#faviconGradient)" />
  <circle cx="30" cy="28" r="9" fill="rgba(255,255,255,0.12)" stroke="rgba(255,255,255,0.5)" stroke-width="3" />
  <circle cx="66" cy="28" r="9" fill="rgba(255,255,255,0.12)" stroke="rgba(255,255,255,0.5)" stroke-width="3" />
  <path d="M42 27H54M45 27V39L30 63C27.7 66.6 30.3 71 34.5 71H61.5C65.7 71 68.3 66.6 66 63L51 39V27" fill="rgba(255,255,255,0.12)" stroke="white" stroke-linecap="round" stroke-linejoin="round" stroke-width="4.5" />
  <path d="M43 50C48 53 53 54 58 54C63 54 68 53 73 50" stroke="rgba(255,255,255,0.65)" stroke-linecap="round" stroke-width="3.5" />
  <path d="M24 55C34 40 58 34 73 45" stroke="rgba(255,255,255,0.34)" stroke-linecap="round" stroke-width="3" />
  <circle cx="69" cy="43" r="3.5" fill="#F2C66A" />
</svg>
